<svg width="109" height="49" viewBox="0 0 109 49" fill="none" xmlns="http://www.w3.org/2000/svg">
<path d="M34.933 0.338029C33.7597 0.833039 32.5486 2.92731 32.5486 4.52658C32.5486 5.74506 34.2896 13.6652 34.6681 14.0079C34.7437 14.0841 35.0465 13.9318 35.3871 13.6652C36.4469 12.7894 36.5983 14.7314 35.7278 17.7395C35.5385 18.4249 35.6521 18.6153 36.1441 18.6153C37.3552 18.6153 39.1719 16.1403 40.6858 12.5229C42.8052 7.30625 44.8111 5.44044 49.9205 3.91733C50.3747 3.76502 50.3368 3.57463 49.7312 3.00347C49.2014 2.47038 48.1038 2.12768 45.9844 1.86114C44.3191 1.63267 41.7455 1.13766 40.3073 0.718806C37.4309 -0.118903 36.2576 -0.195059 34.933 0.338029Z" fill="black"/>
<path d="M75.6566 1.63267C75.5809 1.70883 73.4615 2.01345 70.9635 2.24192C67.8222 2.54654 66.0813 2.88924 65.2486 3.38425C62.2208 5.28813 57.9063 14.1983 57.9063 18.5773C57.9063 19.4911 58.4361 20.3288 60.2906 22.385C63.0535 25.3932 63.9997 27.1828 64.2646 29.734C64.3403 30.7621 64.5674 31.5618 64.7188 31.5618C64.8323 31.5618 65.3622 31.1429 65.8542 30.6098C66.3462 30.0767 67.0274 29.6579 67.4059 29.6579C69.0333 29.6579 73.0073 23.0704 73.3101 19.8719C73.575 17.3207 70.1309 7.49664 68.4656 5.93545C67.3681 4.90736 67.3681 4.90736 68.2385 4.90736C69.6767 4.90736 70.9257 6.39239 72.2504 9.66707C74.2941 14.6172 75.9594 17.7395 77.0569 18.5773C78.3438 19.5673 78.9115 19.1865 79.2142 17.0922C79.3278 16.2545 79.9712 14.6933 80.6903 13.5891C81.7878 11.8375 81.9392 11.2663 81.9014 9.17206C81.8635 6.77316 82.0149 6.46854 82.8097 7.26817C83.6045 8.06781 83.3396 5.70699 82.4313 4.10773C81.9014 3.15578 81.1444 2.47038 80.1604 2.05153C78.8358 1.51844 76.0351 1.2519 75.6566 1.63267ZM63.2049 15.1883C63.2049 15.6072 62.9399 15.9499 62.6372 15.9499C62.0694 15.9499 61.8424 15.1503 62.3344 14.6933C62.7885 14.1983 63.2049 14.4268 63.2049 15.1883ZM67.4059 15.988C68.1628 17.4349 66.3083 18.9961 63.8861 18.9961C62.4479 18.9961 60.934 18.0822 60.934 17.2445C60.934 16.483 61.426 16.5972 61.9938 17.473C62.2965 18.0061 62.8642 18.2346 63.7726 18.2346C65.4379 18.2346 66.384 16.978 66.0056 15.3406C65.7406 14.3126 65.7785 14.2745 66.384 14.7695C66.7247 15.0741 67.1788 15.6072 67.4059 15.988Z" fill="black"/>
<path d="M44.7354 13.9318C44.4705 14.046 44.0163 14.6172 43.6757 15.2645C43.1458 16.2926 43.1458 16.483 43.6757 17.3207C45.0382 19.3388 47.5361 18.6534 47.7632 16.1784L47.8767 14.998L48.7472 16.483C49.7313 18.1203 50.1854 18.1584 49.5799 16.483C48.6715 14.1222 46.7413 13.0941 44.7354 13.9318ZM45.4167 15.3787C45.4167 15.6833 45.1517 15.9499 44.849 15.9499C44.5462 15.9499 44.2813 15.6833 44.2813 15.3787C44.2813 15.0741 44.5462 14.8076 44.849 14.8076C45.1517 14.8076 45.4167 15.0741 45.4167 15.3787Z" fill="black"/>
<path d="M8.8184 17.473C5.97986 19.1865 4.54167 23.1085 4.54167 29.1629V33.0849H2.27083C1.02187 33.0849 0 33.2372 0 33.4276C0 34.113 1.02188 34.5699 2.83854 34.6841L4.69306 34.7984L5.29861 37.8446C6.62326 44.4701 8.13715 47.1736 10.408 47.1736H11.6948L10.8243 45.1555C9.76458 42.7947 8.8184 39.025 8.51562 36.1311L8.25069 34.0368L10.4458 33.0849C14.7604 31.2571 17.0312 28.249 17.334 23.9462C17.5233 20.8619 16.6149 18.463 14.7983 17.3588C13.2844 16.483 10.3701 16.5211 8.8184 17.473ZM12.7167 18.5392C13.5493 19.1103 14.0035 20.5192 14.0035 22.6896C14.0035 25.7359 12.376 29.1629 10.1809 30.7621C9.31042 31.4094 8.43993 31.9425 8.21285 31.9425C7.72083 31.9425 8.13715 23.4131 8.74271 21.5473C9.57535 19.0342 11.392 17.6253 12.7167 18.5392Z" fill="black"/>
<path d="M102.377 18.7676C101.809 19.1865 101.658 19.6815 101.771 21.0904C101.809 22.0804 101.771 23.7177 101.62 24.7078C101.393 26.3451 101.241 26.6117 100.219 26.9543C98.1757 27.6778 97.9486 27.5255 98.2135 25.9262C98.3649 25.0124 98.2514 24.2889 97.9108 23.7939C97.4566 23.1466 97.2674 23.1466 96.2833 23.6035C95.2993 24.0985 95.1858 24.3651 94.9965 26.4213L94.8073 28.7059L91.9688 29.5436C90.417 30.0006 88.6382 30.3813 88.0326 30.3813C87.1243 30.4194 87.0108 30.4956 87.4271 30.9906C87.9948 31.7141 89.6979 31.7141 92.2715 31.0667C93.3313 30.7621 94.2774 30.6098 94.391 30.686C94.4667 30.7621 94.126 32.3995 93.634 34.3414C93.142 36.2834 92.6122 39.2535 92.4608 41.005C92.2715 43.7085 92.3472 44.2416 92.9149 44.889C93.2934 45.3078 93.9368 45.6505 94.3531 45.6505C95.1858 45.6505 97.0781 43.7466 97.3809 42.6043C97.6458 41.6523 96.8889 41.1573 96.4347 41.995C96.2455 42.3377 95.8292 42.6043 95.5642 42.6043C94.6938 42.6043 94.883 40.3577 96.2076 34.7222L97.4188 29.6579L98.8948 29.239C99.6896 29.0105 100.447 28.9344 100.56 29.0105C100.636 29.1248 100.182 31.8283 99.5382 35.0268C98.1 42.0331 98.1 45.3078 99.5004 46.4501C100.598 47.364 101.317 47.364 102.793 46.4501C104.307 45.5363 105.897 42.3758 105.215 41.7285C104.837 41.3858 104.685 41.3858 104.572 41.7666C104.118 42.9851 102.68 44.2416 101.998 43.9751C101.393 43.7466 101.355 43.3658 101.544 40.5862C101.695 37.9969 103.474 28.6298 103.891 28.2109C103.966 28.1348 105.14 28.0205 106.502 28.0205C108.773 27.9444 109 27.8682 109 27.1447C109 25.8501 108.054 25.3551 106.124 25.5836C104.458 25.7739 104.42 25.7359 104.61 24.7458C105.177 21.8139 105.291 20.7858 105.064 19.5673C104.837 18.5011 104.61 18.2346 103.928 18.2346C103.474 18.2346 102.755 18.463 102.377 18.7676Z" fill="black"/>
<path d="M35.3871 25.1647C34.2139 25.812 34.1382 26.1928 34.6681 28.0586C35.3115 30.1529 35.3493 37.0449 34.7437 38.8346C33.7597 41.8427 31.9431 43.1374 31.0347 41.5C30.5049 40.4719 30.6184 35.8645 31.1861 34.2653C31.7538 32.7041 32.5108 32.3233 32.8135 33.4276C33.0785 34.4176 33.8354 34.2653 33.9868 33.1991C34.1382 32.2472 33.1542 31.181 32.1701 31.181C31.7917 31.181 30.959 31.6379 30.3156 32.171C27.4014 34.646 27.2122 43.0231 30.0507 44.1274C31.451 44.6605 33.1542 43.8989 34.1003 42.3758C34.5167 41.6523 34.933 41.0812 34.9708 41.0812C35.0465 41.0812 34.9708 41.8047 34.8194 42.6804C34.4788 44.432 34.5924 44.889 35.3115 44.889C36.409 44.8509 36.7875 44.0512 37.2417 40.6623C37.8094 36.8165 38.3771 35.1791 39.2854 34.7984C40.3451 34.3795 40.6101 35.2172 40.1559 37.7303C39.9288 39.1011 39.7396 41.1954 39.7396 42.3758C39.7396 44.3939 39.8531 44.6986 41.0264 45.879C41.7455 46.6025 42.5781 47.1736 42.9187 47.1736C43.6757 47.1736 43.6757 47.0975 42.7674 45.384C41.8969 43.7085 41.8212 41.7285 42.5403 37.6542C43.108 34.5699 42.8809 33.3895 41.6698 32.7422C40.7993 32.2472 39.0583 32.7802 38.3392 33.7322C37.9229 34.2653 37.8472 33.9606 37.8094 31.9045C37.7715 26.6497 36.9389 24.327 35.3871 25.1647Z" fill="black"/>
<path d="M49.2014 26.4974C48.2552 26.9924 47.7253 27.6017 47.309 28.7821C46.817 30.229 46.8549 30.6098 47.4604 32.5518L48.1417 34.6841L47.1955 35.7122C43.0323 40.1673 44.5462 47.2117 49.9583 48.6967C52.1535 49.306 55.5597 48.9633 57.6413 47.9733C58.8524 47.364 59.6851 47.2498 61.1233 47.4021C62.2965 47.5163 63.3563 47.4021 63.924 47.0975C65.1351 46.4501 65.4 45.6505 64.3781 45.6505C63.9618 45.6505 63.2049 45.4982 62.675 45.2697L61.7288 44.927L62.7128 43.1374C63.9618 40.9289 64.1132 37.578 63.0913 36.0168C62.3344 34.8364 60.8583 34.3414 59.458 34.8364C58.3983 35.2172 58.0576 36.0168 57.717 38.9488L57.4521 40.7766L56.5059 39.9008C55.976 39.4058 54.8028 37.9969 53.8944 36.7403L52.2292 34.5318L53.8944 32.9326C55.6733 31.2952 56.241 29.8863 55.8625 28.3251C55.3326 26.269 51.6236 25.2409 49.2014 26.4974ZM53.516 27.754C54.2351 28.4775 53.2132 28.8202 50.8288 28.6298C48.4444 28.4394 48.1038 28.0205 49.7313 27.3351C50.6774 26.9544 52.9483 27.1828 53.516 27.754ZM50.034 37.578C50.3747 38.1492 51.6993 39.7485 52.9483 41.1573C54.2351 42.5281 55.2569 43.8609 55.2569 44.0893C55.2569 44.7747 53.0997 45.6505 51.283 45.6505C48.5201 45.6505 47.2333 44.7366 46.4007 42.0712C45.9087 40.5481 47.7632 36.5119 48.9743 36.5119C49.2014 36.5119 49.6934 36.9688 50.034 37.578ZM59.8743 38.7965C59.7608 40.51 58.7389 42.9089 57.7549 43.7085C57.2628 44.1274 57.3385 43.8228 57.9441 42.452C58.3604 41.5 58.8146 39.8246 58.9281 38.7965C59.1931 36.4357 60.0257 36.4357 59.8743 38.7965Z" fill="black"/>
<path d="M73.6128 27.0686C71.4934 29.5817 68.4656 36.8165 67.3681 41.9189C66.8003 44.4701 67.0274 45.2697 68.2385 45.2697C69.0712 45.2697 69.1847 45.0793 69.4118 42.8328C69.6767 40.1673 71.0771 35.4838 72.2882 33.0468C72.7045 32.2472 73.083 31.5618 73.1587 31.5618C73.1965 31.5618 73.2344 33.2372 73.2344 35.3314C73.2344 39.2154 73.6128 40.3196 74.9375 40.3196C75.3917 40.3196 75.9972 39.3677 76.9813 36.9688C78.3438 33.656 79.7819 30.9525 80.0469 31.2191C80.1226 31.2952 79.9333 33.161 79.5927 35.3314C78.9493 39.9008 79.1764 43.4039 80.2361 45.1936C80.9552 46.374 81.4851 46.6025 83.0747 46.4121C84.1722 46.2978 84.1722 46.2217 83.3017 45.0032C81.7122 42.8708 81.9014 35.1791 83.6802 29.0105C84.475 26.2309 84.2858 25.7359 82.6583 25.9263C81.3715 26.0786 79.3656 28.5917 77.5111 32.3995C76.8299 33.8083 76.1108 34.9507 75.9594 34.9507C75.5809 34.9888 75.9215 31.2191 76.4892 28.7059C77.0191 26.1547 76.9434 25.8501 75.7323 25.8501C74.9375 25.8501 74.3319 26.1928 73.6128 27.0686Z" fill="black"/>
<path d="M21.8757 32.5899C20.5889 34.0368 20.059 35.7503 20.059 38.7584C20.059 42.8708 21.6865 45.0413 24.3358 44.3559C25.6604 44.0512 26.3795 42.8328 26.8715 40.2815C27.3635 37.6923 26.7958 34.646 25.5469 33.1229C25.017 32.5518 24.7142 31.9425 24.8656 31.7902C24.9792 31.676 24.6007 31.5618 23.9951 31.5618C23.2382 31.5618 22.5191 31.9045 21.8757 32.5899ZM24.1844 34.8745C25.2819 37.2734 25.1684 42.9851 23.9951 42.9851C23.1625 42.9851 22.6705 41.2335 22.6326 38.2254C22.5569 34.1891 23.2382 32.7802 24.1844 34.8745Z" fill="black"/>
<path d="M14.117 32.7422C11.1649 33.8464 10.5972 40.9669 13.2087 43.7847C14.7226 45.422 15.9337 45.5744 17.4476 44.2036C18.6208 43.1755 18.7344 42.8708 18.8479 40.3577C19.075 36.1311 17.599 32.9706 15.7066 33.6941C15.3281 33.8464 15.1767 34.151 15.366 34.5699C17.0691 38.4919 17.5611 43.1755 16.2743 43.1755C14.609 43.1755 13.3222 36.2453 14.5712 33.8845C15.2903 32.4375 15.2524 32.2852 14.117 32.7422Z" fill="black"/>
<path d="M84.8913 33.5418C84.5128 34.1891 83.6802 39.6342 83.6424 41.7285C83.6424 44.927 86.4052 45.9932 88.7517 43.6324C90.2278 42.1474 91.1361 39.4058 91.4767 35.6361L91.7038 33.0087L90.6062 33.161C89.5465 33.2752 89.5087 33.3514 89.2816 36.0168C88.8653 40.6242 87.3135 44.1655 86.216 43.0612C85.8753 42.7185 85.951 41.6904 86.4052 38.9108C87.3135 33.7322 87.2757 33.0849 86.1403 33.0849C85.6104 33.0849 85.0806 33.3133 84.8913 33.5418Z" fill="black"/>
</svg>
